<svg height="512" viewBox="0 0 64 64" width="512" xmlns="http://www.w3.org/2000/svg"><g id="flat"><path d="m5 28h2v8h-2z" fill="#32b1cc"/><path d="m15 28h2v8h-2z" fill="#32b1cc"/><path d="m5 31h18v2h-18z" fill="#195c85"/><path d="m23 30h5v4h-5z" fill="#f9bb4b"/><path d="m28 24h8v16h-8z" fill="#4da6ea"/><path d="m24 20h4v4h-4z" fill="#f9bb4b"/><path d="m28 20h8v4h-8z" fill="#4f83d1"/><path d="m30 12h4v8h-4z" fill="#f9bb4b"/><path d="m26 12h4v4h-4z" fill="#4da6ea"/><path d="m31 31h2v2h-2z" fill="#dd3e46"/><path d="m31 27h2v2h-2z" fill="#dd3e46"/><path d="m28 36h8v4h-8z" fill="#4f83d1"/><path d="m3 8h6v4h-6z" fill="#ffd782"/><path d="m3 12h6v4h-6z" fill="#f9bb4b"/><path d="m3 16h6v4h-6z" fill="#ffd782"/><path d="m3 20h6v4h-6z" fill="#f9bb4b"/><path d="m3 24h6v4h-6z" fill="#ffd782"/><path d="m13 8h6v4h-6z" fill="#f9bb4b"/><path d="m13 12h6v4h-6z" fill="#ffd782"/><path d="m13 16h6v4h-6z" fill="#f9bb4b"/><path d="m13 20h6v4h-6z" fill="#ffd782"/><path d="m13 24h6v4h-6z" fill="#f9bb4b"/><path d="m3 36h6v4h-6z" fill="#f9bb4b"/><path d="m3 40h6v4h-6z" fill="#ffd782"/><path d="m3 44h6v4h-6z" fill="#f9bb4b"/><path d="m3 48h6v4h-6z" fill="#ffd782"/><path d="m3 52h6v4h-6z" fill="#f9bb4b"/><path d="m13 36h6v4h-6z" fill="#ffd782"/><path d="m13 40h6v4h-6z" fill="#f9bb4b"/><path d="m13 44h6v4h-6z" fill="#ffd782"/><path d="m13 48h6v4h-6z" fill="#f9bb4b"/><path d="m13 52h6v4h-6z" fill="#ffd782"/><path d="m57 28h2v8h-2z" fill="#32b1cc"/><path d="m47 28h2v8h-2z" fill="#32b1cc"/><path d="m41 31h18v2h-18z" fill="#195c85"/><path d="m36 30h5v4h-5z" fill="#f9bb4b" transform="matrix(-1 0 0 -1 77 64)"/><path d="m36 20h4v4h-4z" fill="#f9bb4b" transform="matrix(-1 0 0 -1 76 44)"/><path d="m34 12h4v4h-4z" fill="#4da6ea" transform="matrix(-1 0 0 -1 72 28)"/><path d="m55 8h6v4h-6z" fill="#ffd782" transform="matrix(-1 0 0 -1 116 20)"/><path d="m55 12h6v4h-6z" fill="#f9bb4b" transform="matrix(-1 0 0 -1 116 28)"/><path d="m55 16h6v4h-6z" fill="#ffd782" transform="matrix(-1 0 0 -1 116 36)"/><path d="m55 20h6v4h-6z" fill="#f9bb4b" transform="matrix(-1 0 0 -1 116 44)"/><path d="m55 24h6v4h-6z" fill="#ffd782" transform="matrix(-1 0 0 -1 116 52)"/><path d="m45 8h6v4h-6z" fill="#f9bb4b" transform="matrix(-1 0 0 -1 96 20)"/><path d="m45 12h6v4h-6z" fill="#ffd782" transform="matrix(-1 0 0 -1 96 28)"/><path d="m45 16h6v4h-6z" fill="#f9bb4b" transform="matrix(-1 0 0 -1 96 36)"/><path d="m45 20h6v4h-6z" fill="#ffd782" transform="matrix(-1 0 0 -1 96 44)"/><path d="m45 24h6v4h-6z" fill="#f9bb4b" transform="matrix(-1 0 0 -1 96 52)"/><path d="m55 36h6v4h-6z" fill="#f9bb4b" transform="matrix(-1 0 0 -1 116 76)"/><path d="m55 40h6v4h-6z" fill="#ffd782" transform="matrix(-1 0 0 -1 116 84)"/><path d="m55 44h6v4h-6z" fill="#f9bb4b" transform="matrix(-1 0 0 -1 116 92)"/><path d="m55 48h6v4h-6z" fill="#ffd782" transform="matrix(-1 0 0 -1 116 100)"/><path d="m55 52h6v4h-6z" fill="#f9bb4b" transform="matrix(-1 0 0 -1 116 108)"/><path d="m45 36h6v4h-6z" fill="#ffd782" transform="matrix(-1 0 0 -1 96 76)"/><path d="m45 40h6v4h-6z" fill="#f9bb4b" transform="matrix(-1 0 0 -1 96 84)"/><path d="m45 44h6v4h-6z" fill="#ffd782" transform="matrix(-1 0 0 -1 96 92)"/><path d="m45 48h6v4h-6z" fill="#f9bb4b" transform="matrix(-1 0 0 -1 96 100)"/><path d="m45 52h6v4h-6z" fill="#ffd782" transform="matrix(-1 0 0 -1 96 108)"/><path d="m30 40h4v4h-4z" fill="#f9bb4b"/><path d="m25 44h14v4h-14z" fill="#4da6ea"/><path d="m30 48h4v4h-4z" fill="#f9bb4b"/></g></svg>